{"title":"WWE - Monday Night Raw -4th  OCT  2010 - Xvid-[thedesiadda.com]","uid":5867460,"size":808908800,"categoryP":"video","categoryS":"hd___tv_shows","magnet":"?xt=urn:btih:4bda3ef1f4de7e737d7b1de450d39d22495c1b4b&amp;dn=WWE+-+Monday+Night+Raw+-4th++OCT++2010+-+Xvid-%5Bthedesiadda.com%5D&amp;tr=udp%3A%2F%2Ftracker.openbittorrent.com%3A80&amp;tr=udp%3A%2F%2Fopen.demonii.com%3A1337&amp;tr=udp%3A%2F%2Ftracker.coppersurfer.tk%3A6969&amp;tr=udp%3A%2F%2Fexodus.desync.com%3A6969","seeders":0,"leechers":1,"uploader":"Vamp111","files":1,"time":1286266258,"description":"[IMG]http://i1022.photobucket.com/albums/af345/bhoottt/1_1000-2.jpg[/IMG]\n\n[IMG]http://i1022.photobucket.com/albums/af345/bhoottt/WWE-MondayNightRaw-4thOCT2010-Xvid-thedesiaddacom_20101005-11232781.jp\ng[/IMG]\n[IMG]http://i1022.photobucket.com/albums/af345/bhoottt/WWE-MondayNightRaw-4thOCT2010-Xvid-thedesiaddacom_20101005-11232332.jp\ng[/IMG]\n[IMG]http://i1022.photobucket.com/albums/af345/bhoottt/WWE-MondayNightRaw-4thOCT2010-Xvid-thedesiaddacom_20101005-11251285.jp\ng[/IMG]\n[IMG]http://i1022.photobucket.com/albums/af345/bhoottt/WWE-MondayNightRaw-4thOCT2010-Xvid-thedesiaddacom_20101005-11244692.jp\ng[/IMG]\n[IMG]http://i1022.photobucket.com/albums/af345/bhoottt/WWE-MondayNightRaw-4thOCT2010-Xvid-thedesiaddacom_20101005-11240832.jp\ng[/IMG]\n[IMG]http://i1022.photobucket.com/albums/af345/bhoottt/WWE-MondayNightRaw-4thOCT2010-Xvid-thedesiaddacom_20101005-11254146.jp\ng[/IMG]\n\n\n\nVideo\nID                               : 0\nFormat                           : MPEG-4 Visual\nFormat profile                   : Advanced Simple@L5\nFormat settings, BVOP            : Yes\nFormat settings, QPel            : No\nFormat settings, GMC             : No warppoints\nFormat settings, Matrix          : Default (H.263)\nCodec ID                         : XVID\nCodec ID/Hint                    : XviD\nDuration                         : 1h 32mn\nBit rate                         : 1 022 Kbps\nWidth                            : 640 pixels\nHeight                           : 368 pixels\nDisplay aspect ratio             : 16:9\nFrame rate                       : 25.000 fps\nResolution                       : 8 bits\nColorimetry                      : 4:2:0\nScan type                        : Progressive\nBits/(Pixel*Frame)               : 0.174\nStream size                      : 678 MiB (88%)\nWriting library                  : XviD 1.1.2 (UTC 2006-11-01)\n\nAudio\nID                               : 1\nFormat                           : MPEG Audio\nFormat version                   : Version 1\nFormat profile                   : Layer 3\nMode                             : Joint stereo\nFormat_Settings_ModeExtension    : MS Stereo\nCodec ID                         : 55\nCodec ID/Hint                    : MP3\nDuration                         : 1h 32mn\nBit rate mode                    : Constant\nBit rate                         : 128 Kbps\nChannel(s)                       : 2 channels\nSampling rate                    : 44.1 KHz\nStream size                      : 84.9 MiB (11%)\n","torrent":{"xt":"urn:btih:4bda3ef1f4de7e737d7b1de450d39d22495c1b4b","amp;dn":"WWE+-+Monday+Night+Raw+-4th++OCT++2010+-+Xvid-%5Bthedesiadda.com%5D","amp;tr":["udp%3A%2F%2Ftracker.openbittorrent.com%3A80","udp%3A%2F%2Fopen.demonii.com%3A1337","udp%3A%2F%2Ftracker.coppersurfer.tk%3A6969","udp%3A%2F%2Fexodus.desync.com%3A6969"],"infoHash":"4bda3ef1f4de7e737d7b1de450d39d22495c1b4b","infoHashBuffer":{"type":"Buffer","data":[75,218,62,241,244,222,126,115,125,123,29,228,80,211,157,34,73,92,27,75]},"announce":[],"urlList":[]}}